<svg width="48" height="43" viewBox="0 0 48 43" fill="none" xmlns="http://www.w3.org/2000/svg">
<path fill-rule="evenodd" clip-rule="evenodd" d="M0 5C0 2.23858 2.23858 0 5 0H43C45.7614 0 48 2.23858 48 5C48 7.76142 45.7614 10 43 10H5C2.23858 10 0 7.76142 0 5Z" fill="#801136"/>
<path fill-rule="evenodd" clip-rule="evenodd" d="M0 21C0 18.2386 2.23858 16 5 16H43C45.7614 16 48 18.2386 48 21C48 23.7614 45.7614 26 43 26H5C2.23858 26 0 23.7614 0 21Z" fill="#801136"/>
<path fill-rule="evenodd" clip-rule="evenodd" d="M0 38C0 35.2386 2.23858 33 5 33H43C45.7614 33 48 35.2386 48 38C48 40.7614 45.7614 43 43 43H5C2.23858 43 0 40.7614 0 38Z" fill="#801136"/>
</svg>